<svg id="Capa_1" enable-background="new 0 0 512 512" height="512" viewBox="0 0 512 512" width="512" xmlns="http://www.w3.org/2000/svg"><g><path d="m512 257v240c0 8.28-6.72 15-15 15h-62c-5.68 0-10.88-3.21-13.42-8.29l-21.14-42.28c-37.92 31.48-87.23 50.57-140.29 50.57h-99.93c-40.59 0-63.88-10.31-107.7-20.16-30.92-7.73-52.52-35.39-52.52-67.27 0-14.36 5.34-28.12 15.02-38.72 3.77-4.13 12.09-15.07 7.95-27.51-4.16-15.37-22.97-54.88-22.97-116.34 0-65.76 20.93-105.39 30-137.43v-89.57c0-8.28 6.72-15 15-15h120c8.28 0 15 6.72 15 15v27.97c0 142.97 25.25 246.34 26.86 256.87 14.09-6.44 31.12-11.39 49.14-15.2 64.58-13.64 141.97-12.59 143.03-12.64 21.57-19.39 49.17-30 78.4-30h19.57c8.28 0 15 6.72 15 15z" fill="#ffbfab"/><path d="m512 257v240c0 8.28-6.72 15-15 15h-62c-5.68 0-10.88-3.21-13.42-8.29l-21.14-42.28c-37.92 31.48-87.23 50.57-140.29 50.57h-4.15v-227.36c64.58-13.64 141.97-12.59 143.03-12.64 21.57-19.39 49.17-30 78.4-30h19.57c8.28 0 15 6.72 15 15z" fill="#ffa17a"/></g></svg>